<?xml version="1.0" encoding="UTF-8" standalone="no"?>
<!DOCTYPE svg PUBLIC "-//W3C//DTD SVG 1.1//EN"
 "http://www.w3.org/Graphics/SVG/1.1/DTD/svg11.dtd">
<!-- Generated by graphviz version 2.40.1 (20161225.0304)
 -->
<!-- Title: snakemake_dag Pages: 1 -->
<svg width="344pt" height="1052pt"
 viewBox="0.00 0.00 343.50 1052.00" xmlns="http://www.w3.org/2000/svg" xmlns:xlink="http://www.w3.org/1999/xlink">
<g id="graph0" class="graph" transform="scale(1 1) rotate(0) translate(4 1048)">
<title>snakemake_dag</title>
<polygon fill="#ffffff" stroke="transparent" points="-4,4 -4,-1048 339.5,-1048 339.5,4 -4,4"/>
<!-- 0 -->
<g id="node1" class="node">
<title>0</title>
<path fill="none" stroke="#88d856" stroke-width="2" d="M135,-36C135,-36 105,-36 105,-36 99,-36 93,-30 93,-24 93,-24 93,-12 93,-12 93,-6 99,0 105,0 105,0 135,0 135,0 141,0 147,-6 147,-12 147,-12 147,-24 147,-24 147,-30 141,-36 135,-36"/>
<text text-anchor="middle" x="120" y="-15.5" font-family="sans" font-size="10.00" fill="#000000">all</text>
</g>
<!-- 1 -->
<g id="node2" class="node">
<title>1</title>
<path fill="none" stroke="#b6d856" stroke-width="2" d="M304,-108C304,-108 274,-108 274,-108 268,-108 262,-102 262,-96 262,-96 262,-84 262,-84 262,-78 268,-72 274,-72 274,-72 304,-72 304,-72 310,-72 316,-78 316,-84 316,-84 316,-96 316,-96 316,-102 310,-108 304,-108"/>
<text text-anchor="middle" x="289" y="-87.5" font-family="sans" font-size="10.00" fill="#000000">fig2a</text>
</g>
<!-- 1&#45;&gt;0 -->
<g id="edge1" class="edge">
<title>1&#45;&gt;0</title>
<path fill="none" stroke="#c0c0c0" stroke-width="2" d="M261.9819,-76.2082C258.9675,-74.754 255.9288,-73.3244 253,-72 220.7431,-57.4141 183.3323,-42.3883 156.4197,-31.9019"/>
<polygon fill="#c0c0c0" stroke="#c0c0c0" stroke-width="2" points="157.5976,-28.6048 147.0086,-28.2532 155.0671,-35.1314 157.5976,-28.6048"/>
</g>
<!-- 2 -->
<g id="node3" class="node">
<title>2</title>
<path fill="none" stroke="#56d8b1" stroke-width="2" d="M152,-180C152,-180 122,-180 122,-180 116,-180 110,-174 110,-168 110,-168 110,-156 110,-156 110,-150 116,-144 122,-144 122,-144 152,-144 152,-144 158,-144 164,-150 164,-156 164,-156 164,-168 164,-168 164,-174 158,-180 152,-180"/>
<text text-anchor="middle" x="137" y="-159.5" font-family="sans" font-size="10.00" fill="#000000">fig2bc</text>
</g>
<!-- 2&#45;&gt;0 -->
<g id="edge2" class="edge">
<title>2&#45;&gt;0</title>
<path fill="none" stroke="#c0c0c0" stroke-width="2" d="M134.8469,-143.7623C131.9473,-119.201 126.7584,-75.2474 123.3474,-46.3541"/>
<polygon fill="#c0c0c0" stroke="#c0c0c0" stroke-width="2" points="126.7839,-45.6103 122.1356,-36.0896 119.8322,-46.431 126.7839,-45.6103"/>
</g>
<!-- 3 -->
<g id="node4" class="node">
<title>3</title>
<path fill="none" stroke="#d88556" stroke-width="2" d="M42,-108C42,-108 12,-108 12,-108 6,-108 0,-102 0,-96 0,-96 0,-84 0,-84 0,-78 6,-72 12,-72 12,-72 42,-72 42,-72 48,-72 54,-78 54,-84 54,-84 54,-96 54,-96 54,-102 48,-108 42,-108"/>
<text text-anchor="middle" x="27" y="-87.5" font-family="sans" font-size="10.00" fill="#000000">fig3ab</text>
</g>
<!-- 3&#45;&gt;0 -->
<g id="edge3" class="edge">
<title>3&#45;&gt;0</title>
<path fill="none" stroke="#c0c0c0" stroke-width="2" d="M50.4678,-71.8314C62.0327,-62.8779 76.1404,-51.9558 88.6183,-42.2955"/>
<polygon fill="#c0c0c0" stroke="#c0c0c0" stroke-width="2" points="90.775,-45.0521 96.5397,-36.1628 86.4898,-39.5171 90.775,-45.0521"/>
</g>
<!-- 4 -->
<g id="node5" class="node">
<title>4</title>
<path fill="none" stroke="#d85656" stroke-width="2" d="M97,-252C97,-252 67,-252 67,-252 61,-252 55,-246 55,-240 55,-240 55,-228 55,-228 55,-222 61,-216 67,-216 67,-216 97,-216 97,-216 103,-216 109,-222 109,-228 109,-228 109,-240 109,-240 109,-246 103,-252 97,-252"/>
<text text-anchor="middle" x="82" y="-231.5" font-family="sans" font-size="10.00" fill="#000000">fig4ab</text>
</g>
<!-- 4&#45;&gt;0 -->
<g id="edge4" class="edge">
<title>4&#45;&gt;0</title>
<path fill="none" stroke="#c0c0c0" stroke-width="2" d="M85.1745,-215.9555C91.7965,-178.3144 107.1246,-91.1867 115.0522,-46.1246"/>
<polygon fill="#c0c0c0" stroke="#c0c0c0" stroke-width="2" points="118.5221,-46.6003 116.8078,-36.1451 111.628,-45.3874 118.5221,-46.6003"/>
</g>
<!-- 5 -->
<g id="node6" class="node">
<title>5</title>
<path fill="none" stroke="#d89c56" stroke-width="2" d="M232,-108C232,-108 160,-108 160,-108 154,-108 148,-102 148,-96 148,-96 148,-84 148,-84 148,-78 154,-72 160,-72 160,-72 232,-72 232,-72 238,-72 244,-78 244,-84 244,-84 244,-96 244,-96 244,-102 238,-108 232,-108"/>
<text text-anchor="middle" x="196" y="-87.5" font-family="sans" font-size="10.00" fill="#000000">percentage_calc</text>
</g>
<!-- 5&#45;&gt;0 -->
<g id="edge5" class="edge">
<title>5&#45;&gt;0</title>
<path fill="none" stroke="#c0c0c0" stroke-width="2" d="M176.822,-71.8314C167.6412,-63.1337 156.4994,-52.5783 146.5224,-43.1265"/>
<polygon fill="#c0c0c0" stroke="#c0c0c0" stroke-width="2" points="148.8385,-40.4995 139.1719,-36.1628 144.0243,-45.5811 148.8385,-40.4995"/>
</g>
<!-- 6 -->
<g id="node7" class="node">
<title>6</title>
<path fill="none" stroke="#d8b456" stroke-width="2" d="M306.5,-180C306.5,-180 255.5,-180 255.5,-180 249.5,-180 243.5,-174 243.5,-168 243.5,-168 243.5,-156 243.5,-156 243.5,-150 249.5,-144 255.5,-144 255.5,-144 306.5,-144 306.5,-144 312.5,-144 318.5,-150 318.5,-156 318.5,-156 318.5,-168 318.5,-168 318.5,-174 312.5,-180 306.5,-180"/>
<text text-anchor="middle" x="281" y="-159.5" font-family="sans" font-size="10.00" fill="#000000">trinuc_norm</text>
</g>
<!-- 6&#45;&gt;1 -->
<g id="edge6" class="edge">
<title>6&#45;&gt;1</title>
<path fill="none" stroke="#c0c0c0" stroke-width="2" d="M283.0187,-143.8314C283.8743,-136.131 284.8917,-126.9743 285.8426,-118.4166"/>
<polygon fill="#c0c0c0" stroke="#c0c0c0" stroke-width="2" points="289.3283,-118.7386 286.9541,-108.4133 282.3711,-117.9656 289.3283,-118.7386"/>
</g>
<!-- 7 -->
<g id="node8" class="node">
<title>7</title>
<path fill="none" stroke="#59d856" stroke-width="2" d="M240.5,-252C240.5,-252 177.5,-252 177.5,-252 171.5,-252 165.5,-246 165.5,-240 165.5,-240 165.5,-228 165.5,-228 165.5,-222 171.5,-216 177.5,-216 177.5,-216 240.5,-216 240.5,-216 246.5,-216 252.5,-222 252.5,-228 252.5,-228 252.5,-240 252.5,-240 252.5,-246 246.5,-252 240.5,-252"/>
<text text-anchor="middle" x="209" y="-231.5" font-family="sans" font-size="10.00" fill="#000000">signature_calc</text>
</g>
<!-- 7&#45;&gt;2 -->
<g id="edge7" class="edge">
<title>7&#45;&gt;2</title>
<path fill="none" stroke="#c0c0c0" stroke-width="2" d="M190.8314,-215.8314C182.2848,-207.2848 171.9443,-196.9443 162.6198,-187.6198"/>
<polygon fill="#c0c0c0" stroke="#c0c0c0" stroke-width="2" points="164.9592,-185.0095 155.4133,-180.4133 160.0095,-189.9592 164.9592,-185.0095"/>
</g>
<!-- 7&#45;&gt;5 -->
<g id="edge11" class="edge">
<title>7&#45;&gt;5</title>
<path fill="none" stroke="#c0c0c0" stroke-width="2" d="M207.3535,-215.7623C205.1362,-191.201 201.1682,-147.2474 198.5597,-118.3541"/>
<polygon fill="#c0c0c0" stroke="#c0c0c0" stroke-width="2" points="202.0181,-117.7344 197.6331,-108.0896 195.0465,-118.3638 202.0181,-117.7344"/>
</g>
<!-- 7&#45;&gt;6 -->
<g id="edge12" class="edge">
<title>7&#45;&gt;6</title>
<path fill="none" stroke="#c0c0c0" stroke-width="2" d="M227.1686,-215.8314C235.7152,-207.2848 246.0557,-196.9443 255.3802,-187.6198"/>
<polygon fill="#c0c0c0" stroke="#c0c0c0" stroke-width="2" points="257.9905,-189.9592 262.5867,-180.4133 253.0408,-185.0095 257.9905,-189.9592"/>
</g>
<!-- 8 -->
<g id="node9" class="node">
<title>8</title>
<path fill="none" stroke="#56d89a" stroke-width="2" d="M140,-324C140,-324 78,-324 78,-324 72,-324 66,-318 66,-312 66,-312 66,-300 66,-300 66,-294 72,-288 78,-288 78,-288 140,-288 140,-288 146,-288 152,-294 152,-300 152,-300 152,-312 152,-312 152,-318 146,-324 140,-324"/>
<text text-anchor="middle" x="109" y="-303.5" font-family="sans" font-size="10.00" fill="#000000">ancestral_tree</text>
</g>
<!-- 8&#45;&gt;2 -->
<g id="edge8" class="edge">
<title>8&#45;&gt;2</title>
<path fill="none" stroke="#c0c0c0" stroke-width="2" d="M112.5462,-287.7623C117.3431,-263.0928 125.9439,-218.8598 131.5608,-189.9731"/>
<polygon fill="#c0c0c0" stroke="#c0c0c0" stroke-width="2" points="135.0095,-190.5738 133.4826,-180.0896 128.1381,-189.2377 135.0095,-190.5738"/>
</g>
<!-- 8&#45;&gt;3 -->
<g id="edge9" class="edge">
<title>8&#45;&gt;3</title>
<path fill="none" stroke="#c0c0c0" stroke-width="2" d="M79.4793,-287.9665C67.0585,-278.7878 53.7209,-266.4941 46,-252 23.4147,-209.6019 22.4189,-152.2579 24.3172,-118.3937"/>
<polygon fill="#c0c0c0" stroke="#c0c0c0" stroke-width="2" points="27.8188,-118.4887 25.0115,-108.2726 20.8352,-118.0096 27.8188,-118.4887"/>
</g>
<!-- 8&#45;&gt;4 -->
<g id="edge10" class="edge">
<title>8&#45;&gt;4</title>
<path fill="none" stroke="#c0c0c0" stroke-width="2" d="M102.1868,-287.8314C99.2356,-279.9617 95.7142,-270.5712 92.445,-261.8533"/>
<polygon fill="#c0c0c0" stroke="#c0c0c0" stroke-width="2" points="95.6934,-260.5476 88.905,-252.4133 89.1391,-263.0055 95.6934,-260.5476"/>
</g>
<!-- 8&#45;&gt;7 -->
<g id="edge13" class="edge">
<title>8&#45;&gt;7</title>
<path fill="none" stroke="#c0c0c0" stroke-width="2" d="M134.2342,-287.8314C146.788,-278.7927 162.1283,-267.7476 175.6391,-258.0198"/>
<polygon fill="#c0c0c0" stroke="#c0c0c0" stroke-width="2" points="177.7036,-260.8463 183.7739,-252.1628 173.6134,-255.1655 177.7036,-260.8463"/>
</g>
<!-- 9 -->
<g id="node10" class="node">
<title>9</title>
<path fill="none" stroke="#ced856" stroke-width="2" d="M171,-396C171,-396 141,-396 141,-396 135,-396 129,-390 129,-384 129,-384 129,-372 129,-372 129,-366 135,-360 141,-360 141,-360 171,-360 171,-360 177,-360 183,-366 183,-372 183,-372 183,-384 183,-384 183,-390 177,-396 171,-396"/>
<text text-anchor="middle" x="156" y="-375.5" font-family="sans" font-size="10.00" fill="#000000">refine</text>
</g>
<!-- 9&#45;&gt;8 -->
<g id="edge14" class="edge">
<title>9&#45;&gt;8</title>
<path fill="none" stroke="#c0c0c0" stroke-width="2" d="M144.1399,-359.8314C138.8371,-351.7079 132.4763,-341.9637 126.6327,-333.0118"/>
<polygon fill="#c0c0c0" stroke="#c0c0c0" stroke-width="2" points="129.4169,-330.8739 121.0198,-324.4133 123.5552,-334.7003 129.4169,-330.8739"/>
</g>
<!-- 10 -->
<g id="node11" class="node">
<title>10</title>
<path fill="none" stroke="#70d856" stroke-width="2" d="M170,-540C170,-540 128,-540 128,-540 122,-540 116,-534 116,-528 116,-528 116,-516 116,-516 116,-510 122,-504 128,-504 128,-504 170,-504 170,-504 176,-504 182,-510 182,-516 182,-516 182,-528 182,-528 182,-534 176,-540 170,-540"/>
<text text-anchor="middle" x="149" y="-519.5" font-family="sans" font-size="10.00" fill="#000000">alignment</text>
</g>
<!-- 10&#45;&gt;8 -->
<g id="edge15" class="edge">
<title>10&#45;&gt;8</title>
<path fill="none" stroke="#c0c0c0" stroke-width="2" d="M133.1427,-503.8757C125.5158,-493.9846 117.1455,-481.1062 113,-468 98.7456,-422.934 101.4781,-367.2458 105.0407,-334.2878"/>
<polygon fill="#c0c0c0" stroke="#c0c0c0" stroke-width="2" points="108.555,-334.373 106.2573,-324.0303 101.6037,-333.5484 108.555,-334.373"/>
</g>
<!-- 10&#45;&gt;9 -->
<g id="edge17" class="edge">
<title>10&#45;&gt;9</title>
<path fill="none" stroke="#c0c0c0" stroke-width="2" d="M136.3878,-503.9415C130.1233,-493.866 123.2188,-480.7967 120,-468 116.0971,-452.4833 115.3635,-447.3135 120,-432 122.9564,-422.2355 128.3252,-412.6229 134.03,-404.2762"/>
<polygon fill="#c0c0c0" stroke="#c0c0c0" stroke-width="2" points="136.9414,-406.2239 140.0095,-396.0831 131.2871,-402.0973 136.9414,-406.2239"/>
</g>
<!-- 11 -->
<g id="node12" class="node">
<title>11</title>
<path fill="none" stroke="#d86e56" stroke-width="2" d="M171,-468C171,-468 141,-468 141,-468 135,-468 129,-462 129,-456 129,-456 129,-444 129,-444 129,-438 135,-432 141,-432 141,-432 171,-432 171,-432 177,-432 183,-438 183,-444 183,-444 183,-456 183,-456 183,-462 177,-468 171,-468"/>
<text text-anchor="middle" x="156" y="-447.5" font-family="sans" font-size="10.00" fill="#000000">tree</text>
</g>
<!-- 10&#45;&gt;11 -->
<g id="edge21" class="edge">
<title>10&#45;&gt;11</title>
<path fill="none" stroke="#c0c0c0" stroke-width="2" d="M150.7664,-503.8314C151.515,-496.131 152.4053,-486.9743 153.2373,-478.4166"/>
<polygon fill="#c0c0c0" stroke="#c0c0c0" stroke-width="2" points="156.7256,-478.7051 154.2098,-468.4133 149.7585,-478.0276 156.7256,-478.7051"/>
</g>
<!-- 13 -->
<g id="node14" class="node">
<title>13</title>
<path fill="none" stroke="#56b1d8" stroke-width="2" d="M260.5,-468C260.5,-468 213.5,-468 213.5,-468 207.5,-468 201.5,-462 201.5,-456 201.5,-456 201.5,-444 201.5,-444 201.5,-438 207.5,-432 213.5,-432 213.5,-432 260.5,-432 260.5,-432 266.5,-432 272.5,-438 272.5,-444 272.5,-444 272.5,-456 272.5,-456 272.5,-462 266.5,-468 260.5,-468"/>
<text text-anchor="middle" x="237" y="-447.5" font-family="sans" font-size="10.00" fill="#000000">define_root</text>
</g>
<!-- 10&#45;&gt;13 -->
<g id="edge24" class="edge">
<title>10&#45;&gt;13</title>
<path fill="none" stroke="#c0c0c0" stroke-width="2" d="M171.2061,-503.8314C182.045,-494.9632 195.2444,-484.1637 206.9678,-474.5718"/>
<polygon fill="#c0c0c0" stroke="#c0c0c0" stroke-width="2" points="209.2777,-477.2041 214.801,-468.1628 204.845,-471.7864 209.2777,-477.2041"/>
</g>
<!-- 11&#45;&gt;9 -->
<g id="edge16" class="edge">
<title>11&#45;&gt;9</title>
<path fill="none" stroke="#c0c0c0" stroke-width="2" d="M156,-431.8314C156,-424.131 156,-414.9743 156,-406.4166"/>
<polygon fill="#c0c0c0" stroke="#c0c0c0" stroke-width="2" points="159.5001,-406.4132 156,-396.4133 152.5001,-406.4133 159.5001,-406.4132"/>
</g>
<!-- 12 -->
<g id="node13" class="node">
<title>12</title>
<path fill="none" stroke="#56d86b" stroke-width="2" d="M272,-756C272,-756 232,-756 232,-756 226,-756 220,-750 220,-744 220,-744 220,-732 220,-732 220,-726 226,-720 232,-720 232,-720 272,-720 272,-720 278,-720 284,-726 284,-732 284,-732 284,-744 284,-744 284,-750 278,-756 272,-756"/>
<text text-anchor="middle" x="252" y="-735.5" font-family="sans" font-size="10.00" fill="#000000">metadata</text>
</g>
<!-- 12&#45;&gt;9 -->
<g id="edge18" class="edge">
<title>12&#45;&gt;9</title>
<path fill="none" stroke="#c0c0c0" stroke-width="2" d="M262.6323,-719.5836C277.0436,-692.8383 301,-641.2698 301,-594 301,-594 301,-594 301,-522 301,-481.1184 307.9274,-463.6082 282,-432 259.8194,-404.9595 221.5846,-391.1695 193.0358,-384.3278"/>
<polygon fill="#c0c0c0" stroke="#c0c0c0" stroke-width="2" points="193.5236,-380.8512 183.0038,-382.1099 192.0124,-387.6861 193.5236,-380.8512"/>
</g>
<!-- 12&#45;&gt;13 -->
<g id="edge23" class="edge">
<title>12&#45;&gt;13</title>
<path fill="none" stroke="#c0c0c0" stroke-width="2" d="M251.0617,-719.9843C248.5257,-671.2939 241.5206,-536.7961 238.4613,-478.0573"/>
<polygon fill="#c0c0c0" stroke="#c0c0c0" stroke-width="2" points="241.9534,-477.8133 237.938,-468.0089 234.9629,-478.1774 241.9534,-477.8133"/>
</g>
<!-- 16 -->
<g id="node17" class="node">
<title>16</title>
<path fill="none" stroke="#d8cb56" stroke-width="2" d="M168,-684C168,-684 130,-684 130,-684 124,-684 118,-678 118,-672 118,-672 118,-660 118,-660 118,-654 124,-648 130,-648 130,-648 168,-648 168,-648 174,-648 180,-654 180,-660 180,-660 180,-672 180,-672 180,-678 174,-684 168,-684"/>
<text text-anchor="middle" x="149" y="-663.5" font-family="sans" font-size="10.00" fill="#000000">seq_filter</text>
</g>
<!-- 12&#45;&gt;16 -->
<g id="edge27" class="edge">
<title>12&#45;&gt;16</title>
<path fill="none" stroke="#c0c0c0" stroke-width="2" d="M226.0088,-719.8314C213.0784,-710.7927 197.2778,-699.7476 183.3617,-690.0198"/>
<polygon fill="#c0c0c0" stroke="#c0c0c0" stroke-width="2" points="185.1843,-687.0235 174.9829,-684.1628 181.1737,-692.7608 185.1843,-687.0235"/>
</g>
<!-- 13&#45;&gt;9 -->
<g id="edge19" class="edge">
<title>13&#45;&gt;9</title>
<path fill="none" stroke="#c0c0c0" stroke-width="2" d="M216.5603,-431.8314C206.6795,-423.0485 194.6676,-412.3712 183.955,-402.8489"/>
<polygon fill="#c0c0c0" stroke="#c0c0c0" stroke-width="2" points="186.2326,-400.1906 176.4332,-396.1628 181.582,-405.4224 186.2326,-400.1906"/>
</g>
<!-- 14 -->
<g id="node15" class="node">
<title>14</title>
<path fill="none" stroke="#5682d8" stroke-width="2" d="M177,-612C177,-612 121,-612 121,-612 115,-612 109,-606 109,-600 109,-600 109,-588 109,-588 109,-582 115,-576 121,-576 121,-576 177,-576 177,-576 183,-576 189,-582 189,-588 189,-588 189,-600 189,-600 189,-606 183,-612 177,-612"/>
<text text-anchor="middle" x="149" y="-597" font-family="sans" font-size="10.00" fill="#000000">cd_hit</text>
<text text-anchor="middle" x="149" y="-586" font-family="sans" font-size="10.00" fill="#000000">cdhit: 0.9999</text>
</g>
<!-- 14&#45;&gt;10 -->
<g id="edge20" class="edge">
<title>14&#45;&gt;10</title>
<path fill="none" stroke="#c0c0c0" stroke-width="2" d="M149,-575.8314C149,-568.131 149,-558.9743 149,-550.4166"/>
<polygon fill="#c0c0c0" stroke="#c0c0c0" stroke-width="2" points="152.5001,-550.4132 149,-540.4133 145.5001,-550.4133 152.5001,-550.4132"/>
</g>
<!-- 15 -->
<g id="node16" class="node">
<title>15</title>
<path fill="none" stroke="#56d882" stroke-width="2" d="M323.5,-828C323.5,-828 204.5,-828 204.5,-828 198.5,-828 192.5,-822 192.5,-816 192.5,-816 192.5,-804 192.5,-804 192.5,-798 198.5,-792 204.5,-792 204.5,-792 323.5,-792 323.5,-792 329.5,-792 335.5,-798 335.5,-804 335.5,-804 335.5,-816 335.5,-816 335.5,-822 329.5,-828 323.5,-828"/>
<text text-anchor="middle" x="264" y="-813" font-family="sans" font-size="10.00" fill="#000000">rename_metadata</text>
<text text-anchor="middle" x="264" y="-802" font-family="sans" font-size="10.00" fill="#000000">output_name: 2021&#45;02&#45;09</text>
</g>
<!-- 15&#45;&gt;12 -->
<g id="edge22" class="edge">
<title>15&#45;&gt;12</title>
<path fill="none" stroke="#c0c0c0" stroke-width="2" d="M260.9719,-791.8314C259.6885,-784.131 258.1624,-774.9743 256.7361,-766.4166"/>
<polygon fill="#c0c0c0" stroke="#c0c0c0" stroke-width="2" points="260.1653,-765.7018 255.0689,-756.4133 253.2606,-766.8526 260.1653,-765.7018"/>
</g>
<!-- 16&#45;&gt;14 -->
<g id="edge25" class="edge">
<title>16&#45;&gt;14</title>
<path fill="none" stroke="#c0c0c0" stroke-width="2" d="M149,-647.8314C149,-640.131 149,-630.9743 149,-622.4166"/>
<polygon fill="#c0c0c0" stroke="#c0c0c0" stroke-width="2" points="152.5001,-622.4132 149,-612.4133 145.5001,-622.4133 152.5001,-622.4132"/>
</g>
<!-- 17 -->
<g id="node18" class="node">
<title>17</title>
<path fill="none" stroke="#569ad8" stroke-width="2" d="M178.5,-756C178.5,-756 113.5,-756 113.5,-756 107.5,-756 101.5,-750 101.5,-744 101.5,-744 101.5,-732 101.5,-732 101.5,-726 107.5,-720 113.5,-720 113.5,-720 178.5,-720 178.5,-720 184.5,-720 190.5,-726 190.5,-732 190.5,-732 190.5,-744 190.5,-744 190.5,-750 184.5,-756 178.5,-756"/>
<text text-anchor="middle" x="146" y="-735.5" font-family="sans" font-size="10.00" fill="#000000">header_update</text>
</g>
<!-- 17&#45;&gt;16 -->
<g id="edge26" class="edge">
<title>17&#45;&gt;16</title>
<path fill="none" stroke="#c0c0c0" stroke-width="2" d="M146.757,-719.8314C147.0779,-712.131 147.4594,-702.9743 147.816,-694.4166"/>
<polygon fill="#c0c0c0" stroke="#c0c0c0" stroke-width="2" points="151.3133,-694.5503 148.2328,-684.4133 144.3194,-694.2589 151.3133,-694.5503"/>
</g>
<!-- 18 -->
<g id="node19" class="node">
<title>18</title>
<path fill="none" stroke="#9fd856" stroke-width="2" d="M162,-828C162,-828 86,-828 86,-828 80,-828 74,-822 74,-816 74,-816 74,-804 74,-804 74,-798 80,-792 86,-792 86,-792 162,-792 162,-792 168,-792 174,-798 174,-804 174,-804 174,-816 174,-816 174,-822 168,-828 162,-828"/>
<text text-anchor="middle" x="124" y="-807.5" font-family="sans" font-size="10.00" fill="#000000">subsample_fasta</text>
</g>
<!-- 18&#45;&gt;17 -->
<g id="edge28" class="edge">
<title>18&#45;&gt;17</title>
<path fill="none" stroke="#c0c0c0" stroke-width="2" d="M129.5515,-791.8314C131.9303,-784.0463 134.7638,-774.7729 137.4033,-766.1347"/>
<polygon fill="#c0c0c0" stroke="#c0c0c0" stroke-width="2" points="140.7987,-766.9996 140.3737,-756.4133 134.1042,-764.954 140.7987,-766.9996"/>
</g>
<!-- 19 -->
<g id="node20" class="node">
<title>19</title>
<path fill="none" stroke="#566bd8" stroke-width="2" d="M159.5,-900C159.5,-900 88.5,-900 88.5,-900 82.5,-900 76.5,-894 76.5,-888 76.5,-888 76.5,-876 76.5,-876 76.5,-870 82.5,-864 88.5,-864 88.5,-864 159.5,-864 159.5,-864 165.5,-864 171.5,-870 171.5,-876 171.5,-876 171.5,-888 171.5,-888 171.5,-894 165.5,-900 159.5,-900"/>
<text text-anchor="middle" x="124" y="-879.5" font-family="sans" font-size="10.00" fill="#000000">filter_by_header</text>
</g>
<!-- 19&#45;&gt;18 -->
<g id="edge29" class="edge">
<title>19&#45;&gt;18</title>
<path fill="none" stroke="#c0c0c0" stroke-width="2" d="M124,-863.8314C124,-856.131 124,-846.9743 124,-838.4166"/>
<polygon fill="#c0c0c0" stroke="#c0c0c0" stroke-width="2" points="127.5001,-838.4132 124,-828.4133 120.5001,-838.4133 127.5001,-838.4132"/>
</g>
<!-- 20 -->
<g id="node21" class="node">
<title>20</title>
<path fill="none" stroke="#56c9d8" stroke-width="2" d="M183.5,-972C183.5,-972 64.5,-972 64.5,-972 58.5,-972 52.5,-966 52.5,-960 52.5,-960 52.5,-948 52.5,-948 52.5,-942 58.5,-936 64.5,-936 64.5,-936 183.5,-936 183.5,-936 189.5,-936 195.5,-942 195.5,-948 195.5,-948 195.5,-960 195.5,-960 195.5,-966 189.5,-972 183.5,-972"/>
<text text-anchor="middle" x="124" y="-957" font-family="sans" font-size="10.00" fill="#000000">get_headers</text>
<text text-anchor="middle" x="124" y="-946" font-family="sans" font-size="10.00" fill="#000000">output_name: 2021&#45;02&#45;09</text>
</g>
<!-- 20&#45;&gt;19 -->
<g id="edge30" class="edge">
<title>20&#45;&gt;19</title>
<path fill="none" stroke="#c0c0c0" stroke-width="2" d="M124,-935.8314C124,-928.131 124,-918.9743 124,-910.4166"/>
<polygon fill="#c0c0c0" stroke="#c0c0c0" stroke-width="2" points="127.5001,-910.4132 124,-900.4133 120.5001,-910.4133 127.5001,-910.4132"/>
</g>
<!-- 21 -->
<g id="node22" class="node">
<title>21</title>
<path fill="none" stroke="#56d8c9" stroke-width="2" stroke-dasharray="5,2" d="M229.5,-1044C229.5,-1044 18.5,-1044 18.5,-1044 12.5,-1044 6.5,-1038 6.5,-1032 6.5,-1032 6.5,-1020 6.5,-1020 6.5,-1014 12.5,-1008 18.5,-1008 18.5,-1008 229.5,-1008 229.5,-1008 235.5,-1008 241.5,-1014 241.5,-1020 241.5,-1020 241.5,-1032 241.5,-1032 241.5,-1038 235.5,-1044 229.5,-1044"/>
<text text-anchor="middle" x="124" y="-1029" font-family="sans" font-size="10.00" fill="#000000">gap_mut_calc</text>
<text text-anchor="middle" x="124" y="-1018" font-family="sans" font-size="10.00" fill="#000000">fasta_folder: resources/genomes/2021&#45;02&#45;09</text>
</g>
<!-- 21&#45;&gt;20 -->
<g id="edge31" class="edge">
<title>21&#45;&gt;20</title>
<path fill="none" stroke="#c0c0c0" stroke-width="2" d="M124,-1007.8314C124,-1000.131 124,-990.9743 124,-982.4166"/>
<polygon fill="#c0c0c0" stroke="#c0c0c0" stroke-width="2" points="127.5001,-982.4132 124,-972.4133 120.5001,-982.4133 127.5001,-982.4132"/>
</g>
</g>
</svg>
